<?xml version="1.0" standalone="no"?>
<!DOCTYPE svg PUBLIC "-//W3C//DTD SVG 20010904//EN"
 "http://www.w3.org/TR/2001/REC-SVG-20010904/DTD/svg10.dtd">
<svg version="1.0" xmlns="http://www.w3.org/2000/svg"
 width="355.000000pt" height="355.000000pt" viewBox="0 0 355.000000 355.000000"
 preserveAspectRatio="xMidYMid meet">
<metadata>
Created by potrace 1.14, written by Peter Selinger 2001-2017
</metadata>
<g transform="translate(0.000000,355.000000) scale(0.100000,-0.100000)"
fill="#000000" stroke="none">
<path d="M2 2913 l3 -378 365 -1 c201 0 370 1 375 3 7 2 10 134 10 376 l0 372
-378 3 -377 2 2 -377z"/>
<path d="M830 1780 l0 -1510 28 0 c37 -1 648 -1 693 -1 l35 1 0 1510 0 1510
-378 0 -378 0 0 -1510z"/>
<path d="M1964 1780 l0 -1510 48 -1 c26 0 195 0 376 -1 l327 0 2 1511 2 1511
-377 0 -378 0 0 -1510z"/>
<path d="M3402 3274 c-54 -38 -48 -130 11 -160 89 -47 180 65 114 142 -27 31
-93 41 -125 18z"/>
<path d="M3053 3081 c-301 -105 -349 -503 -82 -676 93 -61 226 -75 331 -35 52
19 158 92 158 109 0 4 8 16 18 27 48 52 77 160 69 251 -13 133 -95 250 -216
307 -84 38 -198 46 -278 17z"/>
<path d="M2797 2233 c9 -90 46 -165 113 -231 150 -148 377 -146 527 4 61 60
98 134 108 212 l7 52 -380 0 -379 0 4 -37z"/>
</g>
</svg>
